<!-- Generator: Adobe Illustrator 19.2.1, SVG Export Plug-In  -->
<svg version="1.1"
	 xmlns="http://www.w3.org/2000/svg" xmlns:xlink="http://www.w3.org/1999/xlink" xmlns:a="http://ns.adobe.com/AdobeSVGViewerExtensions/3.0/"
	 x="0px" y="0px" width="610.532px" height="406.339px" viewBox="0 0 610.532 406.339"
	 style="enable-background:new 0 0 610.532 406.339;" xml:space="preserve">
<defs>
</defs>
<g>
	<path d="M34.16,90.16c12.32,0,18.34-6.86,19.459-14.14c0.84-10.36-7.7-15.26-16.38-17.22l-12.46-3.08
		C4.34,50.54,1.26,38.92,1.26,30.52c0-16.24,14.84-27.16,31.22-27.16c17.64,0,31.08,10.92,31.08,28.28c-2.24,0-10.78,0-13.02,0
		c0-9.66-7.7-15.82-18.2-15.82c-9.38,0-18.06,5.74-18.06,14.56c0,4.2,1.54,10.5,13.72,13.44l12.6,3.08
		c18.06,4.62,27.72,14.84,25.76,30.24c-1.68,13.86-13.3,25.2-32.2,25.2c-19.74,0-33.74-14.14-33.74-29.26c2.1,0,10.92,0,13.02,0
		C13.58,81.479,21.98,90.16,34.16,90.16z"/>
	<path d="M114.801,35.56v10.78h-13.86v54.6h-12.74v-54.6h-11.76V35.56h11.76V10.92h12.74v24.64H114.801z"/>
	<path d="M135.52,3.22c4.9,0,8.82,3.5,8.82,8.26c0,4.76-3.92,8.26-8.82,8.26c-4.76,0-8.82-3.5-8.82-8.26
		C126.7,6.72,130.76,3.22,135.52,3.22z M141.819,35.56h-12.6v65.38h12.6V35.56z"/>
	<path d="M175.838,100.939h-12.74V35.56h12.74v14.7c3.36-11.48,9.66-16.1,18.2-16.1c4.62,0,9.52,1.26,11.34,2.52l-1.96,11.9
		c-3.5-1.68-7-2.24-9.66-2.24c-12.6,0-17.92,13.44-17.92,30.8V100.939z"/>
	<path d="M246.958,34.16c9.94,0,19.04,3.78,25.2,10.5l-9.66,8.12c-3.92-3.92-9.52-6.16-15.54-6.16c-11.76,0-21.98,8.26-21.98,21.42
		c0,13.16,10.22,21.98,21.98,21.98c6.02,0,11.62-2.38,15.54-6.44l9.8,8.12c-6.16,6.72-15.26,10.64-25.34,10.64
		c-18.62,0-34.58-13.58-34.58-34.3S228.337,34.16,246.958,34.16z"/>
	<path d="M301.137,100.939h-12.74V0h12.74v45.36c3.92-7.84,14.42-11.2,21.56-11.2c16.38,0,26.6,10.64,26.46,28.98v37.8
		c-2.1,0-10.64,0-12.74,0v-36.96c0-10.78-6.44-17.36-15.4-17.36s-19.88,5.04-19.88,19.04V100.939z"/>
	<path d="M382.335,0v100.939h-12.74V0H382.335z"/>
	<path d="M465.074,73.08h-53.06c1.54,10.92,10.08,17.78,21.14,17.78c7.84,0,15.12-3.64,18.76-10.08c3.36,1.4,7.42,2.8,10.92,4.2
		c-5.6,11.48-17.5,17.36-30.1,17.36c-18.62,0-33.46-13.58-33.46-34.3s14.84-33.88,33.46-33.88c18.62,0,32.48,13.16,32.48,33.88
		C465.214,69.58,465.214,71.68,465.074,73.08z M452.614,63.14c-1.54-10.92-9.38-17.5-19.88-17.5c-10.78,0-19.18,6.58-20.72,17.5
		H452.614z"/>
	<path d="M484.536,132.719l13.72-33.74l-26.18-63.42h13.58l19.6,47.32l19.6-47.32h13.58l-40.6,97.16H484.536z"/>
	<path d="M303.52,238.439l-9.38,24.5h-13.86l36.68-96.459h14l36.54,96.459h-13.72l-9.38-24.5H303.52z M339.919,226.68l-15.96-42.84
		L308,226.68H339.919z"/>
	<path d="M392.418,262.939h-12.74v-65.38h12.74v14.7c3.36-11.48,9.66-16.1,18.2-16.1c4.62,0,9.52,1.26,11.34,2.52l-1.96,11.9
		c-3.5-1.68-7-2.24-9.66-2.24c-12.6,0-17.92,13.44-17.92,30.8V262.939z"/>
	<path d="M469.276,197.56v10.78h-13.86v54.6h-12.74v-54.6h-11.76v-10.78h11.76v-24.64h12.74v24.64H469.276z"/>
	<path d="M489.995,165.22c4.9,0,8.82,3.5,8.82,8.26c0,4.76-3.92,8.26-8.82,8.26c-4.76,0-8.82-3.5-8.82-8.26
		C481.175,168.72,485.235,165.22,489.995,165.22z M496.294,197.56h-12.6v65.38h12.6V197.56z"/>
	<path d="M514.913,212.82c0.98-9.52,11.06-16.66,22.68-16.66c11.06,0,21.56,5.18,22.68,18.48h-12.18c-0.7-4.9-5.18-7.42-10.22-7.42
		c-4.76,0-8.82,2.38-9.8,5.88c-0.56,2.1-0.56,3.64,0.14,5.18c1.26,2.66,4.34,4.06,7.7,5.04l9.66,2.38
		c13.58,3.36,16.94,11.62,16.94,19.04c0,12.18-11.76,19.6-25.34,19.6c-11.76,0-23.94-7.56-24.36-21h11.62
		c0.42,2.8,2.24,5.88,5.32,7.42c2.8,1.68,6.16,2.52,10.36,2.24c5.88-0.42,9.8-3.78,9.94-8.54c0.14-4.76-3.92-7.14-8.68-8.26
		l-8.96-2.1C520.513,230.879,513.793,224.859,514.913,212.82z"/>
	<path d="M610.532,197.56v10.78h-13.86v54.6h-12.74v-54.6h-11.76v-10.78h11.76v-24.64h12.74v24.64H610.532z"/>
	<path d="M85.4,389.68c-8.54,10.22-21.56,16.66-36.54,16.66c-27.3,0-48.86-22.12-48.86-49.42c0-27.439,21.56-49.56,48.86-49.56
		c14.84,0,27.72,6.3,36.26,16.38l-9.8,8.12c-6.58-7.14-15.82-11.9-26.46-11.9c-20.16,0-35.84,16.52-35.84,36.959
		c0,20.44,15.68,36.82,35.84,36.82c10.78,0,20.3-4.76,26.74-12.32L85.4,389.68z"/>
	<path d="M95.06,372.04c0-20.72,15.54-33.88,34.16-33.88c18.62,0,34.3,13.16,34.3,33.88s-15.68,34.3-34.3,34.3
		C110.6,406.339,95.06,392.759,95.06,372.04z M150.779,372.04c0-13.16-9.8-21.42-21.56-21.42c-11.76,0-21.56,8.26-21.56,21.42
		c0,13.3,9.8,21.98,21.56,21.98C140.979,394.02,150.779,385.339,150.779,372.04z"/>
	<path d="M193.199,304v100.939h-12.74V304H193.199z"/>
	<path d="M227.218,304v100.939h-12.74V304H227.218z"/>
	<path d="M309.958,377.08h-53.06c1.54,10.92,10.08,17.78,21.14,17.78c7.84,0,15.12-3.64,18.76-10.08c3.36,1.4,7.42,2.8,10.92,4.2
		c-5.6,11.48-17.5,17.36-30.1,17.36c-18.62,0-33.46-13.58-33.46-34.3s14.84-33.88,33.46-33.88c18.62,0,32.48,13.16,32.48,33.88
		C310.098,373.58,310.098,375.68,309.958,377.08z M297.498,367.14c-1.54-10.92-9.38-17.5-19.88-17.5c-10.78,0-19.18,6.58-20.72,17.5
		H297.498z"/>
	<path d="M356.578,338.16c9.94,0,19.04,3.78,25.2,10.5l-9.66,8.12c-3.92-3.92-9.52-6.16-15.54-6.16c-11.76,0-21.98,8.26-21.98,21.42
		c0,13.16,10.22,21.98,21.98,21.98c6.02,0,11.62-2.38,15.54-6.44l9.8,8.12c-6.16,6.72-15.26,10.64-25.34,10.64
		c-18.62,0-34.58-13.58-34.58-34.3S337.958,338.16,356.578,338.16z"/>
	<path d="M429.517,339.56v10.78h-13.86v54.6h-12.74v-54.6h-11.76v-10.78h11.76v-24.64h12.74v24.64H429.517z"/>
	<path d="M450.235,307.22c4.9,0,8.82,3.5,8.82,8.26c0,4.76-3.92,8.26-8.82,8.26c-4.76,0-8.82-3.5-8.82-8.26
		C441.416,310.72,445.476,307.22,450.235,307.22z M456.535,339.56h-12.6v65.38h12.6V339.56z"/>
	<path d="M482.994,339.56l19.88,49.14l19.74-49.14h13.58l-27.3,65.38h0.14h-12.32l-27.16-65.38H482.994z"/>
	<path d="M609.135,377.08h-53.06c1.54,10.92,10.08,17.78,21.14,17.78c7.84,0,15.12-3.64,18.76-10.08c3.36,1.4,7.42,2.8,10.92,4.2
		c-5.6,11.48-17.5,17.36-30.1,17.36c-18.62,0-33.46-13.58-33.46-34.3s14.84-33.88,33.46-33.88c18.62,0,32.48,13.16,32.48,33.88
		C609.275,373.58,609.275,375.68,609.135,377.08z M596.675,367.14c-1.54-10.92-9.38-17.5-19.88-17.5c-10.78,0-19.18,6.58-20.72,17.5
		H596.675z"/>
</g>
</svg>